<?xml version="1.0" standalone="no"?>
<!DOCTYPE svg PUBLIC "-//W3C//DTD SVG 20010904//EN"
 "http://www.w3.org/TR/2001/REC-SVG-20010904/DTD/svg10.dtd">
<svg version="1.0" xmlns="http://www.w3.org/2000/svg"
 width="225.000000pt" height="225.000000pt" viewBox="0 0 225.000000 225.000000"
 preserveAspectRatio="xMidYMid meet">

<g transform="translate(0.000000,225.000000) scale(0.100000,-0.100000)"
fill="#000000" stroke="none">
<path d="M1045 2244 c-438 -32 -825 -322 -970 -726 -51 -143 -66 -232 -66
-393 0 -185 26 -308 101 -480 64 -149 244 -357 390 -453 195 -128 387 -185
625 -184 241 0 441 61 638 193 80 54 232 206 286 286 86 129 154 295 181 442
17 93 14 323 -5 417 -78 376 -333 682 -690 825 -133 53 -339 84 -490 73z m163
-920 c143 -59 178 -249 65 -356 -105 -100 -282 -66 -344 67 -65 140 37 303
189 305 29 0 69 -7 90 -16z m-434 -308 c4 -18 24 -61 46 -94 140 -217 465
-217 610 0 21 33 42 75 46 94 l6 34 289 0 289 0 0 -37 c0 -62 -40 -193 -90
-298 -186 -385 -621 -602 -1035 -516 -194 40 -348 123 -485 261 -152 151 -241
328 -275 548 l-7 42 300 0 300 0 6 -34z"/>
</g>
</svg>
